<svg width="35" height="35" viewBox="0 0 35 35" fill="none" xmlns="http://www.w3.org/2000/svg">
<path d="M9.27496 2.64103L6.89059 0.250794C2.89336 3.29291 0.249394 8.02373 0 13.37H3.34396C3.59335 8.94392 5.86836 5.06332 9.27496 2.64103ZM31.656 13.37H35C34.7506 8.02373 32.1066 3.29291 28.0963 0.250794L25.7061 2.64103C29.1316 5.06332 31.4066 8.94392 31.656 13.37ZM28.3645 14.2085C28.3645 9.07669 24.8062 4.78041 20.0054 3.6458V2.50687C20.0054 1.12147 18.8883 0 17.5 0C16.1116 0 14.9946 1.12147 14.9946 2.50687V3.6458C10.1938 4.78041 6.6354 9.07809 6.6354 14.2085V23.4004L3.29291 26.7399V28.4112H31.707V26.7399L28.3645 23.4004V14.2085ZM17.5 33.4279C17.7348 33.4279 17.9506 33.4133 18.1708 33.3607C19.2529 33.1449 20.1585 32.3924 20.5741 31.3862C20.7418 30.9895 20.8439 30.5535 20.8439 30.0839H14.156C14.156 31.9229 15.661 33.4279 17.5 33.4279Z" fill="#CA3E47"/>
</svg>
