<svg width="1920" height="1740" viewBox="0 0 1920 1740" fill="none" xmlns="http://www.w3.org/2000/svg">
<mask id="mask0_329_271" style="mask-type:alpha" maskUnits="userSpaceOnUse" x="11" y="14" width="2018" height="1711">
<path d="M90.3333 1500.52C90.9452 1492.84 99.6346 1488.71 105.974 1493.08L232.482 1580.22C238.822 1584.58 238.057 1594.17 231.106 1597.48L92.3874 1663.47C85.4359 1666.78 77.5114 1661.32 78.1232 1653.65L90.3333 1500.52Z" stroke="#CA3E47" stroke-width="3"/>
<path d="M947.747 1299.95C949.815 1292.54 959.135 1290.14 964.522 1295.64L1014.62 1346.77C1020.01 1352.27 1017.42 1361.54 1009.97 1363.46L940.636 1381.28C933.18 1383.2 926.446 1376.32 928.514 1368.91L947.747 1299.95Z" stroke="#CA3E47" stroke-width="3"/>
<path d="M940.333 1605.91C946.978 1602.03 955.338 1606.79 955.379 1614.49L955.913 1713.32C955.955 1721.02 947.648 1725.88 940.96 1722.07L855.101 1673.11C848.413 1669.3 848.361 1659.68 855.007 1655.79L940.333 1605.91Z" stroke="#CA3E47" stroke-width="3"/>
<path d="M1737.11 1333.52C1732.32 1327.49 1735.86 1318.54 1743.48 1317.41L1887.84 1296.04C1895.46 1294.91 1901.44 1302.45 1898.6 1309.61L1844.93 1445.32C1842.1 1452.48 1832.58 1453.89 1827.8 1447.86L1737.11 1333.52Z" stroke="#CA3E47" stroke-width="3"/>
<path d="M1460.82 1616.47C1457.43 1609.56 1462.79 1601.57 1470.47 1602.09L1541.89 1606.93C1549.57 1607.45 1553.81 1616.09 1549.52 1622.49L1509.61 1681.92C1505.32 1688.31 1495.72 1687.66 1492.33 1680.74L1460.82 1616.47Z" stroke="#CA3E47" stroke-width="3"/>
<path d="M388.815 1097.47C385.426 1090.56 390.79 1082.57 398.47 1083.09L469.893 1087.93C477.574 1088.46 481.81 1097.09 477.519 1103.49L437.612 1162.92C433.32 1169.31 423.72 1168.66 420.331 1161.75L388.815 1097.47Z" stroke="#CA3E47" stroke-width="3"/>
<path d="M1671.12 970.021C1678.43 967.366 1685.83 973.691 1684.36 981.32L1674.72 1031.11C1673.26 1038.63 1664.23 1041.79 1658.41 1036.82L1620.38 1004.35C1614.56 999.379 1616.26 989.968 1623.46 987.35L1671.12 970.021Z" stroke="#CA3E47" stroke-width="3"/>
<path d="M1159.98 887.331C1160.4 879.616 1169.03 875.268 1175.48 879.527L1349.76 994.665C1356.17 998.901 1355.61 1008.48 1348.75 1011.94L1163.2 1105.38C1156.34 1108.83 1148.31 1103.58 1148.72 1095.91L1159.98 887.331Z" stroke="#CA3E47" stroke-width="3"/>
<path d="M813.591 716.921C821.222 715.715 827.281 723.249 824.465 730.443L776.68 852.534C773.88 859.69 764.391 861.144 759.575 855.156L677.86 753.542C673.044 747.554 676.501 738.598 684.091 737.398L813.591 716.921Z" stroke="#CA3E47" stroke-width="3"/>
<path d="M15.1934 947.255C9.9988 941.574 12.9022 932.4 20.4196 930.742L90.3265 915.323C97.8438 913.665 104.337 920.767 102.014 928.106L80.414 996.357C78.0912 1003.7 68.6946 1005.77 63.5 1000.09L15.1934 947.255Z" stroke="#CA3E47" stroke-width="3"/>
<path d="M1784.07 181.462C1778.57 186.85 1769.3 184.265 1767.38 176.81L1729.13 28.0338C1727.21 20.5783 1734.09 13.8435 1741.5 15.9113L1889.47 57.1735C1896.89 59.2413 1899.28 68.5607 1893.78 73.9485L1784.07 181.462Z" stroke="#CA3E47" stroke-width="3"/>
<path d="M1108.2 649.948C1110.19 657.384 1103.39 664.188 1095.95 662.196L1026.8 643.67C1019.37 641.678 1016.88 632.384 1022.32 626.94L1072.94 576.319C1078.38 570.875 1087.67 573.365 1089.67 580.801L1108.2 649.948Z" stroke="#CA3E47" stroke-width="3"/>
<path d="M280.894 314.481C286.05 320.197 283.085 329.351 275.556 330.958L132.835 361.43C125.307 363.037 118.861 355.892 121.233 348.569L166.205 209.733C168.577 202.409 177.988 200.4 183.144 206.116L280.894 314.481Z" stroke="#CA3E47" stroke-width="3"/>
<path d="M539.262 113.737C543.082 120.42 538.234 128.732 530.536 128.699L458.95 128.385C451.252 128.352 446.477 119.997 450.355 113.348L486.42 51.5086C490.298 44.8588 499.92 44.901 503.74 51.5844L539.262 113.737Z" stroke="#CA3E47" stroke-width="3"/>
<path d="M1641.42 464.704C1645.24 471.388 1640.4 479.7 1632.7 479.666L1561.11 479.353C1553.41 479.319 1548.64 470.965 1552.52 464.315L1588.58 402.476C1592.46 395.826 1602.08 395.868 1605.9 402.552L1641.42 464.704Z" stroke="#CA3E47" stroke-width="3"/>
<path d="M369.756 673.074C362.636 676.187 354.842 670.343 355.833 662.636L362.303 612.333C363.28 604.734 372.089 601.012 378.219 605.608L418.222 635.598C424.352 640.194 423.249 649.694 416.228 652.762L369.756 673.074Z" stroke="#CA3E47" stroke-width="3"/>
<path d="M934.894 264.549C934.967 272.275 926.625 277.161 919.922 273.319L776.488 191.104C769.821 187.283 769.776 177.683 776.407 173.799L918.285 90.6961C924.916 86.8124 933.267 91.5471 933.339 99.2308L934.894 264.549Z" stroke="#CA3E47" stroke-width="3"/>
<path d="M1367.46 282.213C1375.18 282.495 1379.68 291.053 1375.53 297.573L1311.7 397.953C1307.57 404.437 1297.98 404.041 1294.41 397.239L1239.36 292.513C1235.79 285.711 1240.9 277.587 1248.58 277.867L1367.46 282.213Z" stroke="#CA3E47" stroke-width="3"/>
</mask>
<g mask="url(#mask0_329_271)">
<rect x="0.00012207" y="-399" width="1920" height="2408" fill="url(#paint0_linear_329_271)"/>
</g>
<defs>
<linearGradient id="paint0_linear_329_271" x1="960" y1="-399" x2="960" y2="2009" gradientUnits="userSpaceOnUse">
<stop stop-color="#EE525C"/>
<stop offset="1" stop-color="#AA2A32"/>
</linearGradient>
</defs>
</svg>
