<svg width="60" height="65" viewBox="0 0 60 65" fill="none" xmlns="http://www.w3.org/2000/svg">
<path d="M1.90277 24.0927C1.90277 19.0337 6.04863 14.9325 11.1628 14.9325H48.8372C53.9514 14.9325 58.0973 19.0337 58.0973 24.0927V53.9576C58.0973 59.0166 53.9514 63.1178 48.8372 63.1178H11.1628C6.04863 63.1178 1.90277 59.0166 1.90277 53.9576V24.0927Z" fill="#CA3E47"/>
<path d="M5.83508 5.01929C5.83508 4.32627 6.40301 3.76447 7.10358 3.76447H52.6427C53.3433 3.76447 53.9112 4.32627 53.9112 5.01929V10.7915C53.9112 11.4845 53.3433 12.0463 52.6427 12.0463H7.10358C6.40301 12.0463 5.83508 11.4845 5.83508 10.7915V5.01929Z" fill="white"/>
<path opacity="0.11" d="M47.0613 7.27798C47.0613 5.97296 45.5391 4.05726 44.778 3.26254L48.8372 1.12933L55.0529 3.26254L54.2918 11.4189L51.2474 13.6776L56.8288 20.9556V41.7857L55.0529 57.5337L49.7886 61.2982V31.0569C49.8732 28.9865 49.9915 24.3687 49.7886 22.4614C49.5349 20.0772 48.8372 18.6969 47.0613 16.9401C45.6406 15.5347 44.9471 14.7651 44.778 14.556C44.778 13.9076 45.019 12.3726 45.9831 11.4189C47.1882 10.2268 47.0613 8.90925 47.0613 7.27798Z" fill="black"/>
<path d="M1.90279 46.4286H58.0973V53.9575C58.0973 59.0166 53.9514 63.1178 48.8372 63.1178H11.1628C6.04865 63.1178 1.90279 59.0166 1.90279 53.9575V46.4286Z" fill="#AA2A32"/>
<path fill-rule="evenodd" clip-rule="evenodd" d="M1.90279 45.1L2.00472 44.0752C3.38536 43.6428 3.77035 41.2193 6.53502 41.6353C9.34839 42.053 14.4927 45.3084 17.297 44.6052C20.1013 43.9019 22.9906 40.8003 25.7666 40.8965C28.5426 40.9927 31.254 44.2884 34.0243 44.5445C36.7947 44.8006 39.6726 42.0188 42.4656 41.6353C45.2585 41.2518 49.5369 43.4976 52.3446 44.0752C55.1036 44.6511 56.3433 43.557 57.7239 43.1246L59.1532 42.6939L58.9494 48.45L57.537 48.401C56.1734 48.3538 53.3974 48.2576 50.6214 48.1614C47.7967 48.0635 45.0207 47.9673 42.2447 47.8711C39.4687 47.7749 36.6927 47.6787 33.9167 47.5825C31.1408 47.4863 28.3161 47.3884 25.5401 47.2922C22.7641 47.196 19.9881 47.0998 17.2121 47.0036C14.4361 46.9074 11.6601 46.8111 8.83541 46.7133C6.05942 46.6171 3.28343 46.5208 1.91978 46.4736L1.90279 45.1Z" fill="#AA2A32"/>
<path fill-rule="evenodd" clip-rule="evenodd" d="M7.1036 0H52.6427C55.445 0 57.7167 2.24722 57.7167 5.0193V10.7915C57.7167 13.5636 55.445 15.8108 52.6427 15.8108H7.1036C4.30131 15.8108 2.0296 13.5636 2.0296 10.7915V5.0193C2.0296 2.24722 4.30131 0 7.1036 0ZM7.1036 3.76448C6.40302 3.76448 5.8351 4.32628 5.8351 5.0193V10.7915C5.8351 11.4845 6.40303 12.0463 7.1036 12.0463H52.6427C53.3433 12.0463 53.9112 11.4845 53.9112 10.7915V5.0193C53.9112 4.32628 53.3433 3.76448 52.6427 3.76448H7.1036Z" fill="black"/>
<path fill-rule="evenodd" clip-rule="evenodd" d="M0 24.0926C0 17.9941 4.99775 13.0502 11.1628 13.0502H48.8372C55.0022 13.0502 60 17.9941 60 24.0926V53.9575C60 60.0561 55.0022 65 48.8372 65H11.1628C4.99775 65 0 60.0561 0 53.9575V24.0926ZM11.1628 16.8146C7.09947 16.8146 3.8055 20.0731 3.8055 24.0926V53.9575C3.8055 57.977 7.09947 61.2355 11.1628 61.2355H48.8372C52.9005 61.2355 56.1945 57.977 56.1945 53.9575V24.0926C56.1945 20.0731 52.9005 16.8146 48.8372 16.8146H11.1628Z" fill="black"/>
<path d="M25.4968 43.9198H30.2537V24.972C26.8287 24.9511 19.7759 25.2982 18.964 25.3484C18.1522 25.3986 16.6385 26.4569 15.9831 26.9797C15.5391 27.0634 14.2579 27.4816 12.685 28.4855C11.112 29.4893 9.13318 32.6264 9.13318 34.5714V40.72C9.13318 42.8532 9.32345 46.304 9.76743 47.5588C10.2114 48.8137 11.8605 50.3195 12.685 51.0724C13.5095 51.8253 16.3002 52.8919 17.2516 52.9546C18.2029 53.0173 20.4228 52.2017 21.1839 51.8253C21.945 51.4488 23.9112 49.3156 24.5454 48.249C25.0528 47.3957 25.3911 45.0074 25.4968 43.9198Z" fill="white"/>
<path d="M34.4397 43.9198H29.6829V24.972C33.1078 24.9511 40.1607 25.2982 40.9725 25.3484C41.7843 25.3986 43.2981 26.4569 43.9535 26.9797C44.3974 27.0634 45.6786 27.4816 47.2516 28.4855C48.8245 29.4893 50.8034 32.6264 50.8034 34.5714V40.72C50.8034 42.8532 50.6131 46.304 50.1691 47.5588C49.7252 48.8137 48.0761 50.3195 47.2516 51.0724C46.427 51.8253 43.6363 52.8919 42.685 52.9546C41.7336 53.0173 39.5137 52.2017 38.7526 51.8253C37.9915 51.4488 36.0254 49.3156 35.3911 48.249C34.8837 47.3957 34.5454 45.0074 34.4397 43.9198Z" fill="white"/>
<path d="M18.1396 32.6255C18.1396 31.9325 18.7075 31.3707 19.4081 31.3707H20.0423C20.7429 31.3707 21.3108 31.9325 21.3108 32.6255V38.5232C21.3108 39.2162 20.7429 39.778 20.0423 39.778H19.4081C18.7075 39.778 18.1396 39.2162 18.1396 38.5232V32.6255Z" fill="#CA3E47"/>
<path d="M22.7062 34.0058C23.4067 34.0058 23.9746 34.5676 23.9746 35.2606V35.888C23.9746 36.5811 23.4067 37.1429 22.7062 37.1429L16.7442 37.1429C16.0436 37.1429 15.4757 36.5811 15.4757 35.888L15.4757 35.2606C15.4757 34.5676 16.0436 34.0058 16.7442 34.0058L22.7062 34.0058Z" fill="#CA3E47"/>
<path d="M44.778 35.6371C44.778 37.7854 43.0175 39.527 40.8457 39.527C38.6739 39.527 36.9133 37.7854 36.9133 35.6371C36.9133 33.4887 38.6739 31.7471 40.8457 31.7471C43.0175 31.7471 44.778 33.4887 44.778 35.6371Z" fill="#CA3E47"/>
</svg>
